<svg xmlns="http://www.w3.org/2000/svg" viewBox="0 0 280 60" fill="currentColor">
  <!-- S -->
  <path d="M0 45.5c0-2 1.5-3.5 3.5-3.5h22c1.5 0 2.5-1 2.5-2.5s-1-2.5-2.5-2.5H5c-2.8 0-5-2.2-5-5V20c0-2.8 2.2-5 5-5h25c2.8 0 5 2.2 5 5v3.5c0 2-1.5 3.5-3.5 3.5H8c-1.5 0-2.5 1-2.5 2.5s1 2.5 2.5 2.5h20c2.8 0 5 2.2 5 5V49c0 2.8-2.2 5-5 5H3.5C1.5 54 0 52.5 0 50.5v-5z"/>

  <!-- w -->
  <path d="M42 22h8l6 22 6-22h8l6 22 6-22h8l-10 32h-8l-6-20-6 20h-8L42 22z"/>

  <!-- i -->
  <path d="M96 22h8v32h-8V22zM96 8h8v9h-8V8z"/>

  <!-- f -->
  <path d="M112 22h6v-4c0-6 3-10 10-10h4v7h-3c-2.5 0-3 1.5-3 3.5V22h6v7h-6v25h-8V29h-6v-7z"/>

  <!-- t -->
  <path d="M138 22h6V12h8v10h6v7h-6v18c0 2 1 3 3 3h3v7h-5c-6 0-9-3-9-9V29h-6v-7z"/>

  <!-- o (pill shape - outline only) -->
  <rect x="166" y="24" width="52" height="26" rx="13" ry="13" fill="none" stroke="currentColor" stroke-width="3"/>

  <!-- r -->
  <path d="M228 22h8v6c2-4 5-7 11-7h3v8h-4c-6 0-10 3-10 10v15h-8V22z"/>
</svg>
